HIERARCHY
ROOT Hips
{
  OFFSET 3.13124 94.3669 -3.18751
  CHANNELS  6 Xposition Yposition Zposition Zrotation Xrotation Yrotation
  JOINT LeftUpLeg
  {
    OFFSET 8.64259 1.95398 -2.38835
    CHANNELS 3 Zrotation Xrotation Yrotation
    JOINT LeftLeg
    {
      OFFSET 43.7702 0 0
      CHANNELS 3 Zrotation Xrotation Yrotation
      JOINT LeftFoot
      {
        OFFSET 40.6238 0 0
        CHANNELS 3 Zrotation Xrotation Yrotation
        JOINT LeftToeBase
        {
          OFFSET 12.7242 0 0
          CHANNELS 3 Zrotation Xrotation Yrotation
          End Site
          {
            OFFSET 0 0 0
          }
        }
      }
    }
  }
  JOINT RightUpLeg
  {
    OFFSET -8.2249 1.95398 -2.59336
    CHANNELS 3 Zrotation Xrotation Yrotation
    JOINT RightLeg
    {
      OFFSET 43.5653 0 0
      CHANNELS 3 Zrotation Xrotation Yrotation
      JOINT RightFoot
      {
        OFFSET 40.6238 0 0
        CHANNELS 3 Zrotation Xrotation Yrotation
        JOINT RightToeBase
        {
          OFFSET 12.7242 0 0
          CHANNELS 3 Zrotation Xrotation Yrotation
          End Site
          {
            OFFSET 0 0 0
          }
        }
      }
    }
  }
  JOINT Spine
  {
    OFFSET 0.165834 0.87714 6.61349
    CHANNELS 3 Zrotation Xrotation Yrotation
    JOINT Spine1
    {
      OFFSET 7.38962 1.71661e-005 0
      CHANNELS 3 Zrotation Xrotation Yrotation
      JOINT Spine2
      {
        OFFSET 11.9445 1.14441e-005 0
        CHANNELS 3 Zrotation Xrotation Yrotation
        JOINT Spine3
        {
          OFFSET 14.7254 4.19617e-005 0
          CHANNELS 3 Zrotation Xrotation Yrotation
          JOINT Spine4
          {
            OFFSET 10.9679 0 0
            CHANNELS 3 Zrotation Xrotation Yrotation
            JOINT RightShoulder
            {
              OFFSET 2.46616 -1.6653 3.69651
              CHANNELS 3 Zrotation Xrotation Yrotation
              JOINT RightArm
              {
                OFFSET 13.0012 0 0
                CHANNELS 3 Zrotation Xrotation Yrotation
                JOINT RightForeArm
                {
                  OFFSET 28.7848 1.52588e-005 0
                  CHANNELS 3 Zrotation Xrotation Yrotation
                  JOINT RightHand
                  {
                    OFFSET 26.5688 1.52588e-005 0
                    CHANNELS 3 Zrotation Xrotation Yrotation
                    End Site
                    {
                      OFFSET 0 0 0
                    }
                  }
                }
              }
            }
            JOINT LeftShoulder
            {
              OFFSET 2.38034 -1.29275 -3.75231
              CHANNELS 3 Zrotation Xrotation Yrotation
              JOINT LeftArm
              {
                OFFSET 16.3182 6.10352e-005 0
                CHANNELS 3 Zrotation Xrotation Yrotation
                JOINT LeftForeArm
                {
                  OFFSET 27.0901 0 0
                  CHANNELS 3 Zrotation Xrotation Yrotation
                  JOINT LeftHand
                  {
                    OFFSET 24.5451 1.52588e-005 0
                    CHANNELS 3 Zrotation Xrotation Yrotation
                    End Site
                    {
                      OFFSET 0 0 0
                    }
                  }
                }
              }
            }
            JOINT Neck
            {
              OFFSET 5.0226 -0.0266342 0
              CHANNELS 3 Zrotation Xrotation Yrotation
              JOINT Head
              {
                OFFSET 6.69363 2.86102e-005 0
                CHANNELS 3 Zrotation Xrotation Yrotation
                End Site
                {
                  OFFSET 0 0 0
                }
              }
            }
          }
        }
      }
    }
  }
}
MOTION
Frames:	6
Frame Time:	0.0333333
123.199 95.3114 79.9966 78.7432 61.2523 98.5642 175.045 3.08765 83.3126 -3.72877 15.9998 0.867389 46.7733 2.88903 1.63228 28.7808 4.67993e-006 2.73086e-006 -176.466 -2.03086 98.5771 -26.3464 58.9264 6.73625 42.7415 -1.88271 -1.43574 28.7808 1.70704e-005 2.18491e-005 -1.73963 5.71025 -90.0792 15.6488 -2.53757 5.22456 3.96968 -2.30551 5.33079 -18.5284 -3.98919 4.22291 1.48429 -3.98919 4.2229 77.9122 -52.0646 -118.092 73.5205 -63.1217 4.45971 32.7686 4.18193 -86.6215 25.5954 -4.06571 -22.3107 -55.4968 9.22156 -174.511 -54.9533 3.15018 38.3692 4.28272 0.485908 -62.3526 -21.1847 0.31351 -6.80615 8.88889 -7.26089 -72.7844 -33.472 -5.59179 55.2823 
124.664 95.3693 79.114 78.1831 63.2544 99.8703 175.792 1.73044 84.4463 -3.72976 17.7295 0.958787 47.8757 3.26728 1.91742 28.7808 4.67993e-006 2.73086e-006 -179.193 4.00783 94.8934 -37.5358 51.4247 5.57915 46.1375 1.87223 1.8115 28.7808 1.70704e-005 2.18491e-005 -1.49004 5.73741 -89.8044 15.5519 -1.86185 5.68626 3.86943 -1.61023 5.76235 -18.5973 -3.48288 4.86701 1.41534 -3.48291 4.867 78.694 -53.2839 -116.484 65.8335 -61.4387 0.602429 30.6609 1.09763 -90.0112 26.2872 -4.37699 -23.1303 -54.0539 5.06659 -179.984 -53.125 5.04654 34.3368 8.42633 2.32057 -65.8283 -19.5782 -0.0868407 -4.39808 10.7619 -10.3904 -73.5339 -34.4168 -6.82608 53.319 
126.038 95.5106 78.3674 76.2638 65.1427 102.512 176.604 1.17215 85.8861 -3.73667 19.5988 1.05968 48.0425 2.96857 1.68375 28.7808 4.67993e-006 2.73086e-006 179.802 9.26447 90.2225 -41.891 49.6549 5.67484 35.6212 8.59236 8.87372 28.7808 1.70704e-005 2.18491e-005 -1.23502 5.67383 -89.469 15.6333 -1.26457 6.04086 3.94874 -0.99799 6.09041 -18.4975 -3.01914 5.38491 1.51515 -3.01914 5.38489 79.6062 -54.2609 -114.816 59.2975 -59.5482 -2.59154 30.9809 -1.12847 -93.864 25.6225 -4.21791 -22.9286 -55.3888 2.50322 171.944 -53.1959 5.90213 32.6731 20.361 8.05559 -67.2387 -13.2808 -0.00796223 -5.23685 12.205 -13.0043 -73.2664 -34.9963 -7.80816 50.8472 
127.451 95.8537 77.5869 74.7287 66.8189 104.919 177.678 0.52713 87.4825 -3.74289 21.5771 1.16705 47.0918 3.10718 1.79588 28.7808 4.67993e-006 2.73086e-006 179.436 11.7081 87.0866 -40.0899 52.7009 6.36703 22.777 11.7891 15.2503 28.7808 1.70704e-005 2.18491e-005 -1.02868 5.60441 -89.2978 15.739 -0.790831 6.30049 4.05291 -0.513351 6.32904 -18.3772 -2.64477 5.77481 1.63546 -2.64478 5.77481 80.5855 -55.0116 -113.161 55.096 -57.0108 -3.82338 30.0773 -2.91178 -96.425 25.0052 -4.01041 -22.4887 -57.8397 0.65822 162.493 -52.8842 8.02188 33.3448 18.7003 5.17538 -72.7528 -13.4346 -0.749797 2.45925 13.1876 -15.023 -71.9864 -34.8988 -8.45092 47.9566 
128.842 96.1933 76.7903 74.2486 67.9445 106.183 178.285 -0.370458 88.825 -3.74525 22.0342 1.19382 46.3322 3.39113 2.02888 28.7808 4.67993e-006 2.73086e-006 179.065 15.3589 84.4366 -39.671 57.0858 7.38145 17.1837 11.7706 16.6362 28.7808 1.70704e-005 2.18491e-005 -0.779048 5.5762 -89.2303 15.7591 -0.226104 6.61001 4.07138 0.0643666 6.61355 -18.3402 -2.19836 6.23937 1.67246 -2.19838 6.23937 82.1542 -56.3819 -110.497 52.3322 -54.6812 -4.03499 30.0999 -4.30113 -98.5014 25.4023 -3.71085 -20.9337 -60.7145 -1.05716 152.144 -52.5289 9.58115 33.2985 17.6017 3.59016 -76.3511 -12.2051 -1.11978 7.5755 14.585 -17.3396 -70.9756 -35.5125 -9.36479 45.1092 
130.328 96.7636 75.8906 74.0578 68.3952 107.27 179.178 -1.01745 90.287 -3.74587 22.0983 1.20072 43.4752 3.69243 2.31201 28.7808 4.67993e-006 2.73086e-006 178.66 18.3119 83.5463 -34.7964 57.9043 6.77654 9.09246 8.98373 15.4023 28.7808 1.70704e-005 2.18491e-005 -0.486232 5.51787 -89.0434 15.825 0.445295 6.7982 4.1365 0.743352 6.77223 -18.2613 -1.61382 6.61973 1.75131 -1.61384 6.61971 84.7226 -57.8065 -106.496 50.3925 -52.3397 -4.3074 29.2717 -4.95045 -99.6791 26.2382 -3.54516 -19.7499 -64.156 -3.01399 139.873 -51.4494 10.6494 33.211 15.0029 1.81668 -80.1473 -10.0514 -1.37037 14.4854 15.786 -19.4289 -69.1445 -35.6793 -10.2198 41.8645 
